<svg width="72" height="71" viewBox="0 0 72 71" fill="none" xmlns="http://www.w3.org/2000/svg">
<g clip-path="url(#clip0_299_2)">
<path d="M64.3593 55.6247H56.1394C51.9732 55.6247 48.5952 52.2467 48.5952 48.0804V12.5308C48.5952 10.118 47.3083 7.91422 45.6676 6.20912C42.756 3.16891 38.1072 2.10725 34.134 1.2547C31.4638 0.691696 28.7614 0.321722 26.0429 0.160865C23.5013 0.0160924 20.6542 -0.24128 18.1769 0.402151C13.9625 1.51207 10.311 4.45577 8.34853 8.36462C7.28686 10.4879 6.72386 12.8526 6.72386 15.2333C6.72386 18.2091 7.57641 21.0885 9.20107 23.5657C10.7775 25.9786 12.9812 27.9089 15.6032 29.1153C15.8284 29.2279 16.0697 29.3244 16.3271 29.4209L32.252 36.3217L33.3458 36.7882C37.6086 38.8794 40.3914 43.2708 40.3914 48.0643C40.3914 54.9812 34.7614 60.6113 27.8445 60.6113C20.9598 60.6113 15.3458 55.0295 15.2976 48.1448C15.2654 44.0751 12.1126 40.6327 8.05898 40.4397C3.63539 40.2306 0 43.7534 0 48.0965V63.2815C0 67.496 3.42627 70.9223 7.64075 70.9223H64.2467C68.3164 70.9223 71.7748 67.7855 72 63.7158C72.2252 59.2922 68.7185 55.6247 64.3593 55.6247Z" fill="url(#paint0_linear_299_2)"/>
</g>
<defs>
<linearGradient id="paint0_linear_299_2" x1="5.29038" y1="71.7215" x2="58.2385" y2="18.7733" gradientUnits="userSpaceOnUse">
<stop stop-color="#084064"/>
<stop offset="0.5363" stop-color="#2CBEC4"/>
<stop offset="1" stop-color="#94D1B2"/>
</linearGradient>
<clipPath id="clip0_299_2">
<rect width="72" height="70.9062" fill="white"/>
</clipPath>
</defs>
</svg>
